<!-- Generated by IcoMoon.io -->
<svg version="1.1" xmlns="http://www.w3.org/2000/svg" width="768" height="768" viewBox="0 0 768 768">
<title></title>
<g id="icomoon-ignore">
</g>
<path fill="#000" d="M349.696 672c-25.632 0-49.76-9.984-67.872-28.128l-227.872-227.872 227.872-227.872c36.256-36.288 99.488-36.288 135.744 0 18.112 18.048 28.128 42.144 28.128 67.808 0 23.872-8.64 46.432-24.448 64.064h154.752c52.928 0 96 43.072 96 96s-43.072 96-96 96h-154.752c15.776 17.568 24.448 40.064 24.448 63.936 0.064 25.664-9.984 49.824-28.128 67.968-18.144 18.112-42.24 28.096-67.872 28.096zM144.448 416l182.624 182.624c12.128 12.096 33.12 12.096 45.248 0 6.048-6.048 9.376-14.112 9.376-22.656s-3.328-16.544-9.312-22.56l-105.44-105.408h309.056c17.664 0 32-14.368 32-32s-14.336-32-32-32h-309.056l105.376-105.376c6.048-6.048 9.376-14.112 9.376-22.656s-3.328-16.544-9.344-22.56c-12.192-12.16-33.152-12.128-45.28-0.032l-182.624 182.624z"></path>
</svg>
