<!-- Generated by IcoMoon.io -->
<svg version="1.1" xmlns="http://www.w3.org/2000/svg" width="1024" height="1024" viewBox="0 0 1024 1024">
<title></title>
<g id="icomoon-ignore">
</g>
<path fill="#000" d="M704 96h64.082c35.408 0 63.918 28.759 63.918 64.235v735.531c0 35.488-28.617 64.235-63.918 64.235h-480.165c-35.408 0-63.918-28.759-63.918-64.235v-735.531c0-35.488 28.617-64.235 63.918-64.235h224.082v416l96-96 96 96v-416zM160 320v32h64v-32h-64zM160 448v32h64v-32h-64zM160 192v32h64v-32h-64zM160 704v32h64v-32h-64zM160 832v32h64v-32h-64zM160 576v32h64v-32h-64zM224 320v32h64v-32h-64zM224 448v32h64v-32h-64zM224 192v32h64v-32h-64zM224 704v32h64v-32h-64zM224 832v32h64v-32h-64zM224 576v32h64v-32h-64zM544 96v339.199l64-64 64 64v-339.199h-128z"></path>
</svg>
