<!-- Generated by IcoMoon.io -->
<svg version="1.1" xmlns="http://www.w3.org/2000/svg" width="768" height="768" viewBox="0 0 768 768">
<title></title>
<g id="icomoon-ignore">
</g>
<path fill="#000" d="M384 672c-25.632 0-49.76-9.984-67.872-28.128s-28.16-42.272-28.128-67.936c0-23.872 8.672-31.936 24.448-63.936h-154.752c-52.928 0-96-43.104-96-96 0-52.928 43.072-96 96-96h154.752c-15.808-32-24.448-40.16-24.448-64.032 0.032-25.664 9.984-49.728 28.16-67.872 36.224-36.224 99.456-36.256 135.712 0.032l227.872 227.872-227.872 227.872c-18.112 18.144-42.24 28.128-67.872 28.128zM157.696 384c-17.664 0-32 14.368-32 32s14.336 32 32 32h309.056l-105.376 105.376c-6.048 6.048-9.376 14.048-9.376 22.592 0 8.608 3.328 16.608 9.376 22.656 12.128 12.096 33.12 12.096 45.248 0l182.624-182.624-182.624-182.624c-12.128-12.096-33.12-12.096-45.248 0-6.048 6.048-9.376 14.048-9.376 22.592 0 8.576 3.328 16.608 9.376 22.656l105.376 105.376h-309.056z"></path>
</svg>
