<!-- Generated by IcoMoon.io -->
<svg version="1.1" xmlns="http://www.w3.org/2000/svg" width="1024" height="1024" viewBox="0 0 1024 1024">
<title></title>
<g id="icomoon-ignore">
</g>
<path fill="#000" d="M461.575 196.749l-345.123 558.368c-37.289 60.329-10.11 108.884 60.438 108.884h670.194c70.532 0 97.607-48.749 60.438-108.884l-345.123-558.368c-27.776-44.938-72.983-45.045-100.825 0zM491.302 208.733c11.115-17.961 29.171-17.904 40.251 0l352.168 569.043c18.534 29.947 4.67 54.224-30.133 54.224h-684.296c-35.176 0-48.766-24.118-30.135-54.224l352.145-569.043zM512 384c-17.673 0-32 14.497-32 31.905v192.19c0 17.621 14.204 31.905 32 31.905 17.673 0 32-14.497 32-31.905v-192.19c0-17.621-14.204-31.905-32-31.905v0zM512 768c17.673 0 32-14.327 32-32s-14.327-32-32-32c-17.673 0-32 14.327-32 32s14.327 32 32 32v0z"></path>
</svg>
