<!-- Generated by IcoMoon.io -->
<svg version="1.1" xmlns="http://www.w3.org/2000/svg" width="1024" height="1024" viewBox="0 0 1024 1024">
<title></title>
<g id="icomoon-ignore">
</g>
<path fill="#000" d="M846.183 388.811l-83.19-83.19-361.347 361.398 83.378 83.378 361.159-361.586zM868.797 366.17l55.334-55.399c12.479-12.494 12.387-32.803-0.153-45.309l-37.754-37.65c-12.564-12.529-32.807-12.627-45.33-0.102l-55.274 55.282 83.178 83.178zM380.919 691.546l-20.465 99.606 100.317-19.755-79.851-79.851zM704 576v320.082c0 35.408-28.617 63.918-63.918 63.918h-480.165c-35.408 0-63.918-28.759-63.918-64.235v-735.531c0-35.488 28.776-64.235 64.273-64.235h319.727v192.061c0 35.565 28.739 63.939 64.189 63.939h127.811l146.563-146.563c25.366-25.366 65.641-25.232 90.565-0.309l37.744 37.744c24.846 24.846 24.785 65.471-0.309 90.565l-242.563 242.563zM512 96v191.906c0 17.725 14.431 32.094 31.705 32.094h160.295l-192-224z"></path>
</svg>
